<svg width="31" height="31" viewBox="0 0 31 31" fill="none" xmlns="http://www.w3.org/2000/svg">
    <g clip-path="url(#clip0_1_262)">

        <!-- Speaker -->
        <path d="M16.7912 6.3125V24.6875C16.7912 25.4124 16.2185 26 15.5121 26H14.7574C14.4218 25.9986 14.1003 25.8619 13.862 25.6194L8.96299 20.5925C8.24403 19.8539 7.26864 19.4384 6.25125 19.4375C5.00792 19.4375 4 18.4033 4 17.1275V13.8725C4 12.5967 5.00792 11.5625 6.25125 11.5625C7.26864 11.5616 8.24403 11.1461 8.96299 10.4075L13.862 5.38062C14.1003 5.13815 14.4218 5.00145 14.7574 5H15.5121C16.2185 5 16.7912 5.58763 16.7912 6.3125Z" fill="white"/>

        <!-- Mute X -->
        <path d="M21 12L26 17M26 12L21 17" stroke="white" stroke-width="2" stroke-linecap="round"/>

    </g>

    <defs>
        <clipPath id="clip0_1_262">
            <rect width="31" height="31" fill="white"/>
        </clipPath>
    </defs>
</svg>
